<svg width="1264" height="772" viewBox="0 0 1264 772" fill="none" xmlns="http://www.w3.org/2000/svg">
<rect width="1264" height="762" fill="url(#paint0_linear)" fill-opacity="0.97"/>
<path d="M69.4741 696.25L169.5 523L269.526 696.25H69.4741Z" stroke="#6DAEB3" stroke-width="10"/>
<rect x="174" y="71" width="223" height="200" stroke="#6DAEB3" stroke-width="10"/>
<path d="M856 422C856 483.365 806.914 533 746.5 533C686.086 533 637 483.365 637 422C637 360.635 686.086 311 746.5 311C806.914 311 856 360.635 856 422Z" stroke="#78BF6C" stroke-width="10"/>
<path d="M1124 554.18L1145.51 620.39L1146.64 623.845H1150.27L1219.89 623.845L1163.56 664.765L1160.62 666.9L1161.75 670.355L1183.26 736.565L1126.94 695.645L1124 693.51L1121.06 695.645L1064.74 736.565L1086.25 670.355L1087.38 666.9L1084.44 664.765L1028.11 623.845L1097.73 623.845H1101.36L1102.49 620.39L1124 554.18Z" stroke="#74B869" stroke-width="10"/>
<path d="M1088.37 515.421C1089.71 513.006 1088.84 509.963 1086.42 508.625L1047.05 486.832C1044.63 485.495 1041.59 486.369 1040.25 488.785C1038.92 491.201 1039.79 494.244 1042.21 495.581L1077.2 514.953L1057.83 549.949C1056.49 552.365 1057.37 555.408 1059.79 556.745C1062.2 558.082 1065.24 557.208 1066.58 554.792L1088.37 515.421ZM483.381 690.806L1085.38 517.805L1082.62 508.194L480.619 681.194L483.381 690.806Z" fill="#74B869"/>
<path d="M435.5 372.18L457.125 438.736L458.248 442.191H461.88H531.861L475.245 483.324L472.307 485.459L473.429 488.914L495.054 555.469L438.439 514.336L435.5 512.201L432.561 514.336L375.946 555.469L397.571 488.914L398.693 485.459L395.755 483.324L339.139 442.191H409.12H412.752L413.875 438.736L435.5 372.18Z" stroke="#6DAEB3" stroke-width="10"/>
<rect x="343" y="238" width="205" height="179" stroke="#6DAEB3" stroke-width="10"/>
<path d="M868.823 329.75L990.5 119L1112.18 329.75H868.823Z" stroke="#74B869" stroke-width="10"/>
<rect x="820" y="441" width="229" height="219" stroke="#74B869" stroke-width="10"/>
<path d="M336.238 690.679C338.822 691.652 341.706 690.346 342.679 687.762L358.538 645.649C359.512 643.065 358.206 640.181 355.621 639.208C353.037 638.235 350.153 639.541 349.18 642.125L335.083 679.559L297.649 665.462C295.065 664.489 292.181 665.795 291.208 668.379C290.235 670.963 291.541 673.847 294.125 674.82L336.238 690.679ZM112.445 200.063L333.445 688.063L342.555 683.937L121.555 195.937L112.445 200.063Z" fill="#6DAEB3"/>
<path d="M947 244C947 338.693 853.693 417 736.5 417C619.307 417 526 338.693 526 244C526 149.307 619.307 71 736.5 71C853.693 71 947 149.307 947 244Z" stroke="#74B869" stroke-width="10"/>
<defs>
<linearGradient id="paint0_linear" x1="1339.5" y1="741" x2="39.4999" y2="2.98152e-05" gradientUnits="userSpaceOnUse">
<stop stop-color="#19B001"/>
<stop offset="0.807292" stop-color="#0D5362" stop-opacity="0.87"/>
</linearGradient>
</defs>
</svg>
