<svg width="276" height="276" viewBox="0 0 276 276" fill="none" xmlns="http://www.w3.org/2000/svg">
<path d="M138 0C61.9045 0 0 61.9045 0 138C0 214.096 61.9045 276 138 276C214.096 276 276 214.096 276 138C276 61.9045 214.096 0 138 0Z" fill="#21530F" fill-opacity="0.96"/>
<path d="M123.395 216.097L48.645 144.222C46.9545 142.589 46 140.346 46 138C46 135.654 46.9545 133.411 48.645 131.778L123.395 59.9035C128.857 54.6365 138 58.535 138 66.125V103.5H204.125C212.049 103.5 218.5 109.952 218.5 117.875V158.125C218.5 166.049 212.049 172.5 204.125 172.5H138V209.875C138 217.511 128.823 221.318 123.395 216.097Z" fill="white"/>
<path d="M218.5 138H46C46 140.346 46.9545 142.589 48.645 144.222L123.395 216.096C125.12 217.764 127.236 218.511 129.306 218.511C133.734 218.5 138 215.073 138 209.875V172.5H204.125C212.049 172.5 218.5 166.048 218.5 158.125V138Z" fill="#BBB6B6"/>
</svg>
