<svg width="419" height="419" viewBox="0 0 419 419" fill="none" xmlns="http://www.w3.org/2000/svg">
<g id="list 1" clip-path="url(#clip0)">
<path id="Vector" d="M380.441 52.5935H38.5586C17.2977 52.5935 0 69.8903 0 91.1783C0 112.439 17.2977 129.737 38.5586 129.737H380.441C401.702 129.737 419 112.439 419 91.1783C419 69.8903 401.702 52.5935 380.441 52.5935Z" fill="rgb(14,80,14)"/>
<path id="Vector_2" d="M380.441 170.928H38.5586C17.2977 170.928 0 188.225 0 209.513C0 230.774 17.2977 248.072 38.5586 248.072H380.441C401.702 248.072 419 230.774 419 209.513C419 188.225 401.702 170.928 380.441 170.928V170.928Z" fill="rgb(14,80,14)"/>
<path id="Vector_3" d="M380.441 289.263H38.5586C17.2977 289.263 0 306.561 0 327.848C0 349.109 17.2977 366.407 38.5586 366.407H380.441C401.702 366.407 419 349.109 419 327.848C419 306.561 401.702 289.263 380.441 289.263Z" fill="rgb(14,80,14)"/>
</g>
<defs>
<clipPath id="clip0">
<rect width="419" height="419" fill="rgb(14,80,14)"/>
</clipPath>
</defs>
</svg>
