<svg width="958" height="648" viewBox="0 0 958 648" fill="none" xmlns="http://www.w3.org/2000/svg">
<g id="reading 1">
<g id="Group">
<path id="Vector" d="M619.666 0.130913C642.526 0.408913 665.48 5.21891 686.176 14.8389C700.852 21.6839 714.304 30.5639 724.934 41.8489C746.289 64.4189 754.756 97.5339 740.174 122.324C727.945 143.044 701.134 157.936 700.851 181.801C700.475 209.644 736.317 228.144 767.644 233.879C798.877 239.614 833.966 240.724 857.485 260.519C877.711 277.539 883.073 304.826 876.394 327.766C869.714 350.614 852.687 369.669 833.778 385.949C786.365 426.741 725.499 453.474 663.128 474.656C531.33 519.334 388.337 541.071 244.404 538.389C208.468 537.741 168.298 533.949 143.086 510.084C117.686 486.034 116.84 448.016 133.491 420.451C150.142 392.886 180.716 374.386 212.701 360.974C244.686 347.469 279.023 338.126 310.068 323.234C333.586 312.041 357.669 290.674 347.697 267.734C340.642 251.454 319.757 243.591 301.413 236.931C275.543 227.589 249.672 216.674 228.506 200.209C207.339 183.744 191.064 160.896 189.465 136.754C187.96 114.184 199.343 92.6309 216.182 76.4439C233.021 60.2559 254.94 48.8789 277.424 39.0739C366.23 0.500919 557.859 -0.609087 619.666 0.130913Z" fill="#92CB6F"/>
</g>
<path id="Vector 2" d="M915.999 647.447H10.6303C4.7977 647.447 0 642.729 0 636.994V585.194C0 579.459 4.7977 574.741 10.6303 574.741H916.093C921.926 574.741 926.723 579.459 926.723 585.194V636.994C926.723 642.729 921.925 647.447 915.999 647.447Z" fill="#F2F2F2"/>
<g id="Group 2">
<path id="Vector 3" d="M718.349 507.216H63.5943V595.647H718.349V507.216Z" fill="#FFEBC2"/>
<path id="Vector 4" d="M715.621 507.217V595.739H28.6925V602.399C28.6925 610.632 36.0303 617.199 45.0614 617.199H712.705C733.966 617.199 751.181 601.567 751.181 582.234V523.034C751.181 503.702 733.966 488.069 712.705 488.069H45.0614C36.0303 488.069 28.6925 494.729 28.6925 502.869V507.124H715.621V507.217Z" fill="#FCAD00"/>
<g id="Group 3">
<path id="Vector 5" d="M718.349 546.714H63.5943V595.739H718.349V546.714Z" fill="#FFEBC2"/>
</g>
<path id="Vector 6" d="M101.668 476.436H633.751V399.476H101.668V476.436Z" fill="#CCE9FF"/>
<path id="Vector 7" d="M633.777 399.454V476.414H81.5623V482.241C81.5623 489.364 87.4893 495.191 94.7323 495.191H631.425C648.452 495.191 662.375 481.594 662.375 464.759V413.236C662.375 396.494 648.546 382.804 631.425 382.804H94.7323C87.4893 382.804 81.5623 388.631 81.5623 395.754V399.454H633.777Z" fill="#2A94F4"/>
<g id="Group 4">
<path id="Vector 8" d="M633.777 433.772H101.694V476.414H633.777V433.772Z" fill="#CCE9FF"/>
</g>
<path id="Vector 9" d="M107.056 619.419L127.188 608.041L147.32 619.419V546.621H107.056V619.419Z" fill="#2A94F4"/>
<g id="Group 5">
<path id="Vector 10" d="M107.056 619.419L127.188 608.041V546.621H107.056V619.419Z" fill="#CCE9FF"/>
</g>
</g>
<g id="Group 6">
<path id="Vector 11" d="M842.997 615.072C866.14 615.072 875.923 596.849 879.78 577.517C884.108 555.779 880.909 532.562 880.909 532.562H804.992C804.992 532.562 804.897 533.487 804.709 535.059C803.298 548.749 798.689 615.072 842.997 615.072Z" fill="#2A94F4"/>
<path id="Vector 12" d="M804.992 532.562C804.992 534.227 822.019 535.522 842.997 535.522C863.976 535.522 881.003 534.227 881.003 532.562C881.003 530.897 863.976 529.602 842.997 529.602C822.019 529.602 804.992 530.897 804.992 532.562Z" fill="#85DDFF"/>
<path id="Vector 13" d="M740.174 325.546C740.174 325.546 780.25 385.486 804.239 422.024C828.228 458.561 834.531 466.146 837.447 477.986C840.269 489.826 842.903 533.394 842.903 533.394H844.691C844.691 533.394 844.032 496.394 841.869 483.906C839.799 471.881 842.057 467.534 843.75 454.861C845.443 442.189 847.795 421.932 834.719 407.872C821.737 393.812 825.123 380.029 820.514 370.779C815.904 361.529 780.438 350.244 775.923 340.716C771.313 331.189 751.275 325.269 740.174 325.546Z" fill="#46F42A"/>
<path id="Vector 14" d="M740.174 325.546C740.174 325.546 752.78 339.606 761.341 344.416C769.902 349.226 773.947 344.971 780.532 356.534C787.117 368.096 787.4 373.091 793.42 379.011C799.441 384.931 806.591 385.209 807.155 398.159C807.72 411.109 804.333 422.024 804.333 422.024C804.333 422.024 742.714 328.599 740.174 325.546Z" fill="#127610"/>
<path id="Vector 15" d="M839.705 533.394H837.917C837.917 533.394 837.353 521.369 832.555 515.634C829.451 511.842 816.186 507.586 803.11 502.499C795.866 499.724 788.717 496.579 783.354 493.249C768.114 483.722 753.627 453.104 752.31 447.647C751.84 445.704 751.651 444.594 751.651 443.762C751.651 442.282 752.404 442.097 753.721 440.617C754.38 439.877 756.167 440.154 758.425 440.802C765.01 442.744 770.56 447.184 773.947 453.012C777.146 458.377 782.226 465.221 788.434 466.794C799.159 469.661 798.312 471.327 802.263 482.149C806.214 492.879 816.186 494.637 828.792 507.309C841.304 519.982 839.705 533.394 839.705 533.394Z" fill="#127610"/>
<path id="Vector 16" d="M803.016 502.499C795.772 499.724 788.623 496.579 783.26 493.249C768.02 483.722 753.533 453.104 752.216 447.647C751.745 445.704 751.557 444.594 751.557 443.762C751.557 444.132 752.31 448.941 760.212 452.179C768.491 455.509 770.09 455.509 771.125 460.597C772.16 465.684 773.1 471.141 777.428 472.251C781.755 473.269 784.389 468.552 787.776 476.322C791.163 484.092 792.762 486.681 795.96 487.791C799.065 488.809 801.511 487.237 802.169 493.249C802.64 496.857 802.922 500.371 803.016 502.499Z" fill="#71D342"/>
<path id="Vector 17" d="M852.875 533.394H855.039C855.039 533.394 859.178 459.209 864.917 452.364C868.586 447.924 880.815 439.969 896.337 433.864C904.898 430.534 913.365 426.926 919.762 422.856C937.824 411.571 955.04 375.311 956.45 368.836C957.02 366.616 957.2 365.229 957.2 364.304C957.2 362.546 956.26 362.269 954.76 360.511C954 359.679 951.84 359.956 949.113 360.789C941.305 363.101 934.72 368.374 930.675 375.311C926.912 381.694 920.891 389.741 913.553 391.684C900.853 395.014 901.888 397.141 897.184 409.814C892.48 422.579 880.627 424.614 865.763 439.691C850.9 454.676 852.875 533.394 852.875 533.394Z" fill="#127610"/>
<path id="Vector 18" d="M896.243 433.864C904.804 430.534 913.271 426.927 919.668 422.857C937.73 411.572 954.95 375.312 956.36 368.837C956.92 366.617 957.11 365.229 957.11 364.304C957.02 364.766 956.26 370.501 946.855 374.294C937.071 378.271 935.19 378.272 933.873 384.284C932.556 390.297 931.521 396.772 926.441 398.067C921.361 399.362 918.163 393.719 914.117 402.877C910.072 412.034 908.191 415.179 904.428 416.474C900.759 417.769 897.937 415.827 897.09 422.949C896.714 427.204 896.432 431.367 896.243 433.864Z" fill="#46F42A"/>
<g id="Group 7">
<path id="Vector 19" d="M842.997 615.072C866.14 615.072 875.923 596.849 879.78 577.516C857.014 569.006 828.416 555.501 804.709 534.966C803.298 548.749 798.689 615.072 842.997 615.072Z" fill="#FCAD00"/>
</g>
</g>
<path id="Vector 20" d="M592.854 171.072C594.83 162.839 604.802 147.484 613.551 147.022C612.986 149.889 612.046 153.497 613.551 156.272C615.056 158.954 592.854 171.072 592.854 171.072Z" fill="#E2E2E2"/>
<g id="Group 8">
<path id="Vector 21" d="M586.081 540.794C586.081 540.794 586.928 593.334 582.694 594.629C577.144 592.317 561.81 552.449 566.232 547.454C570.653 542.459 575.733 533.302 575.733 533.302L586.081 540.794Z" fill="#2A94F4"/>
<path id="Vector 22" d="M534.34 342.844C534.34 342.844 636.411 385.949 638.669 393.812C641.02 401.767 589.75 542.644 589.75 542.644L574.792 535.244C574.792 535.244 583.635 428.499 604.426 412.034C581.283 402.229 468.3 390.944 472.722 354.499C477.143 317.962 534.34 342.844 534.34 342.844Z" fill="#127610"/>
<path id="Vector 23" d="M605.743 546.807C612.046 557.907 632.177 590.467 631.237 595.554C625.31 597.312 594.36 575.759 593.983 566.879C593.607 557.999 596.9 549.397 596.9 549.397L605.743 546.807Z" fill="#2A94F4"/>
<path id="Vector 24" d="M470.088 355.794C464.537 385.671 453.719 393.812 549.392 431.459C550.991 441.449 574.416 532.932 595.489 554.207C599.816 553.652 607.248 549.397 607.248 549.397C607.248 549.397 586.551 417.769 582.318 412.127C578.461 406.947 520.135 355.794 520.135 355.794H470.088Z" fill="#127610"/>
<path id="Vector 25" d="M456.165 371.704L454.848 379.659C454.848 379.659 414.866 393.904 412.985 395.477C411.103 397.049 452.308 397.142 453.437 397.142C451.085 400.194 447.322 409.722 448.451 412.034C452.966 408.057 458.423 399.177 461.809 396.402C465.196 393.627 467.548 374.294 467.548 374.294L456.165 371.704Z" fill="#FFD3AE"/>
<path id="Vector 26" d="M519.571 223.334C500.286 229.069 482.411 230.457 467.642 311.394L455.788 373.369L468.018 376.607L475.45 358.014C475.45 358.014 534.434 374.017 539.232 347.099C544.03 320.089 544.783 313.522 546.664 311.394C548.546 309.174 551.838 302.237 551.838 302.237C551.838 302.237 593.419 397.604 597.84 259.964C593.419 262.462 585.893 259.594 585.893 259.594C585.893 259.594 580.343 307.232 575.921 301.404C571.5 295.577 568.866 224.259 532.929 225.554L519.571 223.334Z" fill="#FCAD00"/>
<path id="Vector 27" d="M527.191 117.329C527.191 130.557 516.278 141.287 502.826 141.287C489.373 141.287 478.46 130.557 478.46 117.329C478.46 104.102 499.909 98.5519 513.362 98.5519C526.814 98.5519 527.191 104.102 527.191 117.329Z" fill="#35383A"/>
<path id="Vector 28" d="M519.947 196.047C520.229 209.644 512.045 228.329 512.045 228.329L531.424 250.622L534.434 232.492V195.954H519.947V196.047Z" fill="#FFD3AE"/>
<path id="Vector 29" d="M490.878 154.052C490.878 134.442 507.059 118.532 527.003 118.532C546.946 118.532 563.691 134.997 563.691 154.607C563.691 174.217 548.169 192.254 528.32 192.254C508.282 192.254 490.878 173.662 490.878 154.052Z" fill="#35383A"/>
<path id="Vector 30" d="M563.033 171.072C563.033 190.959 551.086 209.922 535.751 209.922C520.417 209.922 502.826 190.959 502.826 171.072C502.826 151.184 519.947 134.997 535.281 134.997C548.546 134.997 559.646 147.114 562.374 163.302C562.845 165.799 563.033 168.389 563.033 171.072Z" fill="#FFE3CA"/>
<path id="Vector 31" d="M562.374 162.932C552.308 158.954 544.971 152.294 541.302 138.049C539.514 152.294 524.933 166.169 500.38 170.979C500.38 150.259 518.16 133.517 534.152 133.517C547.981 133.609 559.552 146.189 562.374 162.932Z" fill="#35383A"/>
<path id="Vector 32" d="M623.617 153.312C622.206 150.629 619.854 148.224 619.854 148.224C619.854 148.224 595.018 169.684 592.854 171.072C590.691 172.459 538.574 153.774 538.574 153.774L536.88 166.724L538.668 215.564L594.454 231.937L616.655 223.427L623.617 153.312Z" fill="#D6D6D6"/>
<path id="Vector 33" d="M625.122 152.294C625.122 152.294 598.593 169.406 597.84 172.366C597.088 175.326 591.537 178.194 583.729 173.939C575.827 169.684 532.929 159.879 532.929 159.879L536.504 235.544L584.858 243.314L618.066 230.086L625.122 152.294Z" fill="#FFBE55"/>
<path id="Vector 34" d="M504.48 189.757C508.502 188.375 510.068 182.485 507.978 176.601C505.887 170.717 500.932 167.067 496.91 168.448C492.888 169.83 491.322 175.72 493.412 181.604C495.503 187.488 500.458 191.138 504.48 189.757Z" fill="#FFE3CA"/>
<path id="Vector 35" d="M597.746 262.554L598.781 248.217L605.084 233.139L584.011 215.472C584.011 215.472 584.67 219.912 587.21 223.334C589.656 226.757 590.879 228.607 590.879 228.607C590.879 228.607 578.179 221.207 576.109 220.097C575.074 221.484 574.322 228.607 578.367 231.844C582.412 235.082 588.339 243.037 588.339 243.037L585.611 261.537C585.705 261.629 595.112 266.809 597.746 262.554Z" fill="#FFD3AE"/>
</g>
</g>
</svg>
