<svg width="1208" height="942" viewBox="0 0 1208 942" fill="none" xmlns="http://www.w3.org/2000/svg">
<path d="M793.89 5.22775C830.377 5.7105 867.015 14.0783 900.048 30.8139C923.472 42.7219 944.944 58.1701 961.911 77.8022C995.996 117.066 1009.51 174.675 986.236 217.802C966.716 253.848 923.922 279.755 923.472 321.273C922.871 369.709 980.079 401.893 1030.08 411.87C1079.93 421.847 1135.94 423.778 1173.48 458.215C1205.76 487.824 1214.32 535.295 1203.66 575.203C1193 614.95 1165.82 648.099 1135.64 676.421C1059.96 747.386 962.812 793.892 863.261 830.742C652.897 908.466 424.665 946.282 194.932 941.615C137.574 940.489 73.4587 933.891 33.2178 892.374C-7.32336 850.535 -8.67475 784.397 17.9022 736.444C44.4792 688.49 93.2788 656.306 144.331 632.973C195.383 609.478 250.188 593.226 299.738 567.318C337.277 547.847 375.716 510.674 359.799 470.766C348.538 442.445 315.204 428.766 285.924 417.18C244.633 400.927 203.341 381.939 169.556 353.295C135.772 324.652 109.796 284.905 107.243 242.905C104.841 203.641 123.009 166.147 149.886 137.986C176.764 109.825 211.749 90.0321 247.636 72.9746C389.38 5.87143 695.24 3.94039 793.89 5.22775Z" fill="#80AD65"/>
<path d="M649.924 148.913L594.077 83.071L589.195 87.7617L645.042 153.604L649.924 148.913Z" fill="#063702"/>
<path d="M635.996 139.42L601.43 98.6678L587.202 112.338L621.768 153.09L635.996 139.42Z" fill="#063702"/>
<path d="M459.396 97.7C459.396 97.7 404.242 140.8 410.819 138.6C410.819 138.6 474.523 153 476.59 128.8C478.657 104.6 466.631 92 459.396 97.7Z" fill="#FFBE55"/>
<path d="M459.396 97.7C459.396 97.7 404.242 140.8 410.819 138.6C410.819 138.6 474.523 153 476.59 128.8C478.657 104.6 466.631 92 459.396 97.7Z" fill="#BF8C09"/>
<path d="M754.895 155.4C754.895 155.4 785.055 245.8 775.378 288L641.675 262.6C641.581 262.5 722.667 148.3 754.895 155.4Z" fill="#FFBE55"/>
<path d="M754.895 155.4C754.895 155.4 785.055 245.8 775.378 288L641.675 262.6C641.581 262.5 722.667 148.3 754.895 155.4Z" fill="#BF8C09"/>
<path d="M737.606 816.4C737.606 800.3 657.648 787.2 558.992 787.2C460.335 787.2 380.377 800.3 380.377 816.4C380.377 832.5 460.335 845.6 558.992 845.6C560.401 845.6 561.904 845.6 563.314 845.6C563.314 851.7 593.756 856.7 631.34 856.7C668.923 856.7 699.365 851.7 699.365 845.6C699.365 842.6 692.037 839.8 680.104 837.8C715.526 832.5 737.606 824.8 737.606 816.4Z" fill="#063702" fill-opacity="0.5"/>
<path d="M460.617 144.5L442.671 52.2C442.671 52.2 455.074 49.6 459.396 61.4C468.886 87.3 483.825 119 483.731 138.3C483.543 168.5 460.617 144.5 460.617 144.5Z" fill="#FCD2B1"/>
<path d="M717.123 176.7L772.277 127L789.284 131.4C789.284 131.4 750.479 191.7 732.721 202.2C714.868 212.7 717.123 176.7 717.123 176.7Z" fill="#FCD2B1"/>
<path d="M775.378 141.5C775.378 141.5 770.492 126.3 772.841 122.5C775.19 118.7 784.774 105.2 784.774 105.2L787.498 102C787.498 102 792.572 103.2 786.089 112.1C779.606 121.1 785.055 118.5 785.055 118.5L793.981 112.7L805.444 106.5L810.142 103.1C810.142 103.1 821.793 106 820.29 112.3C818.317 121.2 802.72 134.6 802.72 134.6L778.008 145.1L775.378 141.5Z" fill="#FCD2B1"/>
<path d="M451.409 66.9C451.409 66.9 460.993 54.5 460.054 50C459.114 45.5 454.604 29.4 454.604 29.4L453.101 25.4C453.101 25.4 447.933 24.7 451.127 35.4C454.322 46.2 450 41.8 450 41.8L443.611 33.1C443.611 33.1 443.987 29.1 442.765 29.5C434.873 32.3 432.712 38.6 432.43 43.7L432.242 47.3C432.148 49 432.618 50.7 433.745 51.9L447.933 69.3L451.409 66.9Z" fill="#FCD2B1"/>
<path d="M553.824 204.8L499.234 162L491.718 144.5L496.228 143.7L486.644 127.3L453.101 137L458.174 166.3L463.154 165.9L468.322 182.4L475.745 184.8L520.845 259.4L553.824 204.8Z" fill="#B0BFDE"/>
<path d="M615.836 785.6L614.709 804.4L615.743 820.3L621.098 825.4L625.326 827.5L626.266 830.3L640.172 843.5C644.024 846.1 649.755 848 657.178 847.3C659.715 847.1 657.272 839.6 656.614 838.4C652.574 831.6 646.091 823.9 646.091 823.9L636.319 806.5L625.514 784.9L615.836 785.6Z" fill="#036318"/>
<path d="M496.979 768.5L499.798 776.5L500.643 785.2L498.482 798.5H491.436L486.456 796.5L482.697 798.5C482.697 798.5 462.684 799.5 455.356 798.6C443.141 797.1 436.752 794.8 434.685 791.9C433.557 790.3 439.571 788.5 441.45 788.5C452.443 788.5 464.751 783 464.751 783L475.087 773.9L477.812 766.7L496.979 768.5Z" fill="#036318"/>
<path d="M632.655 213.8L544.052 196.1C544.052 196.1 468.886 233.3 477.342 393.4C477.342 394.2 587.555 426 587.367 395.4C586.709 319 632.655 213.8 632.655 213.8Z" fill="#F2F2F2"/>
<path d="M583.139 397.2L641.581 806.7L613.018 803.8L577.314 664.9L569.703 623.5L527.046 459L522.066 390L583.139 397.2Z" fill="#0DC034"/>
<path d="M502.053 770.7L495.288 627.4L513.516 551.2L537.381 446.3L530.24 390.8L477.718 385.3L471.517 426.3L454.886 596.3L451.221 637.6L467.758 774.5L502.053 770.7Z" fill="#0DC034"/>
<path d="M575.998 179.2C571.582 200 562.562 211.1 562.938 212.6L566.321 210.6L587.461 213.8L588.871 209.5C588.871 208.7 592.347 212 592.629 210.6C594.602 202 601.367 184 603.152 181.2C605.313 177.9 578.629 166.9 575.998 179.2Z" fill="#FFE3CA"/>
<path d="M580.038 123.6L562.75 156.8C556.173 169.4 560.683 179.3 570.361 189.4C572.522 191.7 591.126 197 597.891 186.8C604.562 176.6 616.964 150.2 616.964 150.2C616.964 150.2 617.904 139.7 600.051 136.1C582.105 132.5 580.038 123.6 580.038 123.6Z" fill="#FFE3CA"/>
<path d="M588.025 112.4C585.582 111.8 581.166 111.5 578.441 114.8C575.528 118.2 572.24 130.6 575.058 133.3C577.783 135.9 602.119 143.1 605.125 143.6C608.132 144.1 613.488 145.8 617.81 142.9C620.628 141.1 615.837 130.8 610.481 129.6C596.763 126.5 597.045 114.6 588.025 112.4Z" fill="#2A3135"/>
<path d="M612.36 140.1C612.36 140.1 611.608 140.8 610.387 141.9C602.4 149.4 597.703 160.1 597.609 171.5C597.045 173.1 597.703 174.9 599.112 175.7L601.367 177C602.682 177.7 604.28 177.4 605.219 176.3C610.387 170.2 625.514 151.4 621.192 145.3C616.118 137.8 613.582 138.6 612.36 140.1Z" fill="#2A3135"/>
<path d="M598.266 177.9C597.327 179.8 597.984 182.1 599.77 183.2L601.649 184.3C603.434 185.3 605.689 184.6 606.723 182.8L610.857 174.8C611.89 172.9 611.139 170.6 609.353 169.5L607.474 168.4C605.689 167.4 603.434 168.1 602.4 169.9L598.266 177.9Z" fill="#FFE3CA"/>
<path d="M568.575 211.5C568.575 211.5 508.536 278 493.691 366.9C492.563 373.9 497.731 380.7 497.731 380.7L509.663 373.7C509.663 373.7 537.663 276.5 568.575 211.5Z" fill="#0B4870"/>
<path d="M569.233 211.1L567.354 224.3L595.635 210.6L594.884 207L569.233 211.1Z" fill="#D3D3D3"/>
<path d="M565.287 202.7L557.394 216.2L569.045 210.8L565.287 202.7Z" fill="#D3D3D3"/>
<path d="M607.098 205.8C607.098 205.8 693.916 190.2 744.09 152.7C744.09 152.7 735.07 270.9 775.284 287.9C775.284 287.9 640.641 279.9 619.407 266.2C619.407 266.2 637.823 593.2 650.601 640C650.601 640 563.22 645.7 537.287 640C511.355 634.3 447.181 634 438.067 598.3C438.067 598.3 459.772 348.3 476.496 276.5C476.496 276.5 411.853 162.3 410.725 138.5C410.725 138.5 471.047 122.8 472.174 93.7C472.174 93.7 497.261 152.2 550.723 197.4C550.723 197.4 544.898 201.6 543.207 231.7C542.643 241.3 552.79 247.2 560.119 241.6L607.098 205.8Z" fill="#0E5108"/>
<path d="M425.853 89.8L425.007 89.4C421.906 88 420.403 84.1 421.813 80.7L453.195 3.79999C454.51 0.499993 458.174 -1.10001 461.369 0.399993L462.215 0.799993C465.315 2.19999 466.819 6.09999 465.409 9.49999L434.027 86.4C432.618 89.7 428.953 91.2 425.853 89.8Z" fill="#F7F7F7"/>
<path d="M464.113 7.48105C464.582 6.4341 463.025 4.6031 460.636 3.39138C458.247 2.17965 455.931 2.04606 455.462 3.09301C454.993 4.13996 456.55 5.971 458.939 7.18273C461.328 8.39445 463.644 8.52799 464.113 7.48105Z" fill="#D3D3D3"/>
<path d="M451.409 66.9C451.409 66.9 460.993 54.5 460.054 50C459.114 45.5 454.604 29.4 454.604 29.4L453.101 25.4C453.101 25.4 447.933 24.7 451.128 35.4C454.322 46.2 450.564 46.5 450.564 46.5L447.745 69.4L451.409 66.9Z" fill="#FCD2B1"/>
<path d="M442.671 29.6C442.671 29.6 450.658 32.8 448.403 39.3C446.148 45.8 436.188 53.1 433.557 52C430.927 50.9 438.349 34.4 442.671 29.6Z" fill="#FCD2B1"/>
</svg>
